<svg width="32" height="32" viewBox="0 0 32 32" fill="none" xmlns="http://www.w3.org/2000/svg">
<path d="M30 16C30 23.732 23.732 30 16 30C8.26801 30 2 23.732 2 16C2 8.26801 8.26801 2 16 2C23.732 2 30 8.26801 30 16Z" fill="#F0CCD0"/>
<path fill-rule="evenodd" clip-rule="evenodd" d="M16 3C8.8203 3 3 8.8203 3 16C3 23.1797 8.8203 29 16 29C23.1797 29 29 23.1797 29 16C29 8.8203 23.1797 3 16 3ZM1 16C1 7.71573 7.71573 1 16 1C24.2843 1 31 7.71573 31 16C31 24.2843 24.2843 31 16 31C7.71573 31 1 24.2843 1 16Z" fill="#E95062"/>
<path fill-rule="evenodd" clip-rule="evenodd" d="M13.8788 16.0001L7.93945 10.0608L10.0608 7.93945L16.0001 13.8788L21.9395 7.93945L24.0608 10.0608L18.1214 16.0001L24.0608 21.9395L21.9395 24.0608L16.0001 18.1214L10.0608 24.0608L7.93945 21.9395L13.8788 16.0001Z" fill="#E95062"/>
</svg>
