<svg width="32" height="32" viewBox="0 0 32 32" fill="none" xmlns="http://www.w3.org/2000/svg">
<path d="M30 16C30 23.732 23.732 30 16 30C8.26801 30 2 23.732 2 16C2 8.26801 8.26801 2 16 2C23.732 2 30 8.26801 30 16Z" fill="#CBDBFB"/>
<path fill-rule="evenodd" clip-rule="evenodd" d="M14.0421 1.12673C14.6834 1.04309 15.3369 1 16 1C16.6631 1 17.3166 1.04309 17.9579 1.12673L17.6992 3.10993C17.1435 3.03745 16.5764 3 16 3C15.4236 3 14.8565 3.03745 14.3008 3.10993L14.0421 1.12673ZM21.7421 2.1386C22.9621 2.64452 24.1004 3.30654 25.1323 4.09949L23.9137 5.68533C23.0188 4.99766 22.0323 4.42409 20.976 3.98605L21.7421 2.1386ZM6.8677 4.09949C7.89956 3.30654 9.03791 2.64452 10.2579 2.1386L11.024 3.98605C9.9677 4.42409 8.98122 4.99766 8.08635 5.68533L6.8677 4.09949ZM2.1386 10.2579C2.64452 9.03791 3.30654 7.89956 4.09949 6.8677L5.68533 8.08635C4.99766 8.98122 4.42409 9.9677 3.98605 11.024L2.1386 10.2579ZM27.9005 6.8677C28.6935 7.89956 29.3555 9.03791 29.8614 10.2579L28.0139 11.024C27.5759 9.9677 27.0023 8.98122 26.3147 8.08635L27.9005 6.8677ZM30.8733 14.0421C30.9569 14.6834 31 15.3369 31 16C31 16.6631 30.9569 17.3166 30.8733 17.9579L28.8901 17.6992C28.9626 17.1435 29 16.5764 29 16C29 15.4236 28.9626 14.8565 28.8901 14.3008L30.8733 14.0421ZM1 16C1 15.3369 1.04309 14.6834 1.12673 14.0421L3.10993 14.3008C3.03745 14.8565 3 15.4236 3 16C3 16.5764 3.03745 17.1435 3.10993 17.6992L1.12673 17.9579C1.04309 17.3166 1 16.6631 1 16ZM29.8614 21.7421C29.3555 22.9621 28.6935 24.1004 27.9005 25.1323L26.3147 23.9137C27.0023 23.0188 27.5759 22.0323 28.0139 20.976L29.8614 21.7421ZM4.09949 25.1323C3.30654 24.1004 2.64452 22.9621 2.1386 21.7421L3.98605 20.976C4.42409 22.0323 4.99766 23.0188 5.68533 23.9137L4.09949 25.1323ZM10.2579 29.8614C9.03791 29.3555 7.89956 28.6935 6.8677 27.9005L8.08635 26.3147C8.98122 27.0023 9.9677 27.5759 11.024 28.0139L10.2579 29.8614ZM25.1323 27.9005C24.1004 28.6935 22.9621 29.3555 21.7421 29.8614L20.976 28.0139C22.0323 27.5759 23.0188 27.0023 23.9137 26.3147L25.1323 27.9005ZM16 31C15.3369 31 14.6834 30.9569 14.0421 30.8733L14.3008 28.8901C14.8565 28.9626 15.4236 29 16 29C16.5764 29 17.1435 28.9626 17.6992 28.8901L17.9579 30.8733C17.3166 30.9569 16.6631 31 16 31Z" fill="#5084E9"/>
<path fill-rule="evenodd" clip-rule="evenodd" d="M16.0737 10.5C12.9806 10.5 10.5 12.9772 10.5 16C10.5 19.0228 12.9806 21.5 16.0737 21.5C16.9021 21.5 17.5737 22.1716 17.5737 23C17.5737 23.8284 16.9021 24.5 16.0737 24.5C11.3534 24.5 7.5 20.7092 7.5 16C7.5 11.2908 11.3534 7.5 16.0737 7.5C20.794 7.5 24.6474 11.2908 24.6474 16C24.6474 17.1195 24.4287 18.1884 24.0321 19.1669C24.784 19.182 25.4212 19.7594 25.4934 20.5261C25.571 21.3509 24.9654 22.0824 24.1406 22.1601L20.1953 22.5315L18.4543 18.996C18.0883 18.2528 18.3941 17.3536 19.1373 16.9877C19.8805 16.6217 20.7797 16.9275 21.1457 17.6707L21.2855 17.9546C21.5196 17.347 21.6474 16.6883 21.6474 16C21.6474 12.9772 19.1668 10.5 16.0737 10.5Z" fill="#5084E9"/>
</svg>
