<svg width="227" height="394" viewBox="0 0 227 394" fill="none" xmlns="http://www.w3.org/2000/svg">
<g opacity="0.5">
<path opacity="0.5" fill-rule="evenodd" clip-rule="evenodd" d="M186.711 308.622C237.497 359.407 319.836 359.407 370.622 308.622C421.407 257.836 421.407 175.497 370.622 124.711C319.836 73.9258 237.497 73.9258 186.711 124.711C135.926 175.497 135.926 257.836 186.711 308.622ZM153.273 342.06C222.526 411.313 334.807 411.313 404.06 342.06C473.313 272.807 473.313 160.526 404.06 91.273C334.807 22.02 222.526 22.02 153.273 91.273C84.0201 160.526 84.0201 272.807 153.273 342.06Z" fill="url(#paint0_linear_11_899)"/>
<path opacity="0.5" fill-rule="evenodd" clip-rule="evenodd" d="M85.378 207.289C136.164 258.074 218.503 258.074 269.289 207.289C320.074 156.503 320.074 74.1635 269.289 23.378C218.503 -27.4075 136.164 -27.4075 85.378 23.378C34.5925 74.1635 34.5925 156.503 85.378 207.289ZM51.9397 240.727C121.193 309.98 233.474 309.98 302.727 240.727C371.98 171.474 371.98 59.1927 302.727 -10.0603C233.474 -79.3132 121.193 -79.3132 51.9397 -10.0603C-17.3132 59.1927 -17.3132 171.474 51.9397 240.727Z" fill="url(#paint1_linear_11_899)"/>
<path opacity="0.5" fill-rule="evenodd" clip-rule="evenodd" d="M151.216 242.784C192.683 251.518 237.519 239.742 269.63 207.63C301.742 175.519 313.518 130.683 304.784 89.2162C263.317 80.4819 218.481 92.2576 186.369 124.369C154.258 156.481 142.482 201.316 151.216 242.784ZM113.501 280.499C88.6634 217.118 101.852 142.278 153.065 91.065C204.279 39.8515 279.118 26.6633 342.499 51.5005C367.337 114.882 354.148 189.721 302.935 240.935C251.721 292.148 176.882 305.336 113.501 280.499Z" fill="url(#paint2_linear_11_899)"/>
</g>
<defs>
<linearGradient id="paint0_linear_11_899" x1="278.667" y1="39.3333" x2="278.667" y2="394" gradientUnits="userSpaceOnUse">
<stop stop-color="#E95062"/>
<stop offset="1" stop-color="#34384C" stop-opacity="0"/>
</linearGradient>
<linearGradient id="paint1_linear_11_899" x1="177.333" y1="-62" x2="177.333" y2="292.667" gradientUnits="userSpaceOnUse">
<stop stop-color="#E95062"/>
<stop offset="1" stop-color="#34384C" stop-opacity="0"/>
</linearGradient>
<linearGradient id="paint2_linear_11_899" x1="228" y1="39.3333" x2="228" y2="292.667" gradientUnits="userSpaceOnUse">
<stop stop-color="#E95062"/>
<stop offset="1" stop-color="#34384C" stop-opacity="0"/>
</linearGradient>
</defs>
</svg>
