<svg width="169" height="363" viewBox="0 0 169 363" fill="none" xmlns="http://www.w3.org/2000/svg">
<g opacity="0.4">
<path opacity="0.5" fill-rule="evenodd" clip-rule="evenodd" d="M148.632 295.035C189.06 335.463 254.607 335.463 295.035 295.035C335.463 254.607 335.463 189.06 295.035 148.632C254.607 108.204 189.06 108.204 148.632 148.632C108.204 189.06 108.204 254.607 148.632 295.035ZM122.013 321.653C177.142 376.782 266.524 376.782 321.653 321.653C376.782 266.524 376.782 177.142 321.653 122.013C266.524 66.8844 177.142 66.8844 122.013 122.013C66.8844 177.142 66.8844 266.524 122.013 321.653Z" fill="url(#paint0_linear_11_932)"/>
<path opacity="0.5" fill-rule="evenodd" clip-rule="evenodd" d="M67.9654 214.368C108.393 254.796 173.94 254.796 214.368 214.368C254.796 173.94 254.796 108.393 214.368 67.9654C173.94 27.5375 108.393 27.5375 67.9654 67.9654C27.5375 108.393 27.5375 173.94 67.9654 214.368ZM41.3468 240.987C96.4758 296.116 185.858 296.116 240.987 240.987C296.116 185.858 296.116 96.4758 240.987 41.3468C185.858 -13.7823 96.4758 -13.7823 41.3468 41.3468C-13.7823 96.4758 -13.7823 185.858 41.3468 240.987Z" fill="url(#paint1_linear_11_932)"/>
<path opacity="0.5" fill-rule="evenodd" clip-rule="evenodd" d="M120.376 242.624C153.386 249.577 189.077 240.203 214.64 214.64C240.203 189.077 249.577 153.386 242.624 120.376C209.614 113.423 173.923 122.797 148.36 148.36C122.797 173.923 113.423 209.614 120.376 242.624ZM90.3524 272.648C70.5808 222.193 81.0792 162.616 121.848 121.848C162.617 81.0792 222.193 70.5807 272.648 90.3524C292.419 140.807 281.921 200.383 241.152 241.152C200.384 281.921 140.807 292.419 90.3524 272.648Z" fill="url(#paint2_linear_11_932)"/>
</g>
<defs>
<linearGradient id="paint0_linear_11_932" x1="221.833" y1="80.6667" x2="221.833" y2="363" gradientUnits="userSpaceOnUse">
<stop stop-color="#6F50E9"/>
<stop offset="1" stop-color="#34384C" stop-opacity="0"/>
</linearGradient>
<linearGradient id="paint1_linear_11_932" x1="141.167" y1="0" x2="141.167" y2="282.333" gradientUnits="userSpaceOnUse">
<stop stop-color="#6F50E9"/>
<stop offset="1" stop-color="#34384C" stop-opacity="0"/>
</linearGradient>
<linearGradient id="paint2_linear_11_932" x1="181.5" y1="80.6667" x2="181.5" y2="282.333" gradientUnits="userSpaceOnUse">
<stop stop-color="#6F50E9"/>
<stop offset="1" stop-color="#34384C" stop-opacity="0"/>
</linearGradient>
</defs>
</svg>
