<svg width="180" height="363" viewBox="0 0 180 363" fill="none" xmlns="http://www.w3.org/2000/svg">
<g opacity="0.4">
<path opacity="0.5" fill-rule="evenodd" clip-rule="evenodd" d="M-34.3679 295.035C6.06004 335.463 71.6067 335.463 112.035 295.035C152.463 254.607 152.463 189.06 112.035 148.632C71.6067 108.204 6.06004 108.204 -34.3679 148.632C-74.7959 189.06 -74.7959 254.607 -34.3679 295.035ZM-60.9865 321.653C-5.85754 376.782 83.5243 376.782 138.653 321.653C193.782 266.524 193.782 177.142 138.653 122.013C83.5243 66.8844 -5.85754 66.8844 -60.9865 122.013C-116.116 177.142 -116.116 266.524 -60.9865 321.653Z" fill="url(#paint0_linear_11_907)"/>
<path opacity="0.5" fill-rule="evenodd" clip-rule="evenodd" d="M-115.035 214.368C-74.6067 254.796 -9.06 254.796 31.368 214.368C71.7959 173.94 71.7959 108.393 31.368 67.9654C-9.06 27.5375 -74.6067 27.5375 -115.035 67.9654C-155.463 108.393 -155.463 173.94 -115.035 214.368ZM-141.653 240.987C-86.5242 296.116 2.85757 296.116 57.9866 240.987C113.116 185.858 113.116 96.4758 57.9866 41.3468C2.85757 -13.7823 -86.5242 -13.7823 -141.653 41.3468C-196.782 96.4758 -196.782 185.858 -141.653 240.987Z" fill="url(#paint1_linear_11_907)"/>
<path opacity="0.5" fill-rule="evenodd" clip-rule="evenodd" d="M-62.6238 242.624C-29.6138 249.577 6.07742 240.203 31.6401 214.64C57.2028 189.077 66.5769 153.386 59.6239 120.376C26.6139 113.423 -9.07738 122.797 -34.6401 148.36C-60.2027 173.923 -69.5768 209.614 -62.6238 242.624ZM-92.6476 272.648C-112.419 222.193 -101.921 162.616 -61.1521 121.848C-20.3835 81.0792 39.1926 70.5807 89.6476 90.3524C109.419 140.807 98.9208 200.383 58.1522 241.152C17.3835 281.921 -42.1926 292.419 -92.6476 272.648Z" fill="url(#paint2_linear_11_907)"/>
</g>
<defs>
<linearGradient id="paint0_linear_11_907" x1="38.8334" y1="80.6666" x2="38.8334" y2="363" gradientUnits="userSpaceOnUse">
<stop stop-color="#6F50E9"/>
<stop offset="1" stop-color="#34384C" stop-opacity="0"/>
</linearGradient>
<linearGradient id="paint1_linear_11_907" x1="-41.8333" y1="0" x2="-41.8333" y2="282.333" gradientUnits="userSpaceOnUse">
<stop stop-color="#6F50E9"/>
<stop offset="1" stop-color="#34384C" stop-opacity="0"/>
</linearGradient>
<linearGradient id="paint2_linear_11_907" x1="-1.49998" y1="80.6666" x2="-1.49998" y2="282.333" gradientUnits="userSpaceOnUse">
<stop stop-color="#6F50E9"/>
<stop offset="1" stop-color="#34384C" stop-opacity="0"/>
</linearGradient>
</defs>
</svg>
