<svg width="203" height="289" viewBox="0 0 203 289" fill="none" xmlns="http://www.w3.org/2000/svg">
<g opacity="0.5">
<path opacity="0.5" fill-rule="evenodd" clip-rule="evenodd" d="M32.3324 234.89C64.5189 267.076 116.703 267.076 148.89 234.89C181.076 202.703 181.076 150.519 148.89 118.332C116.703 86.146 64.5189 86.146 32.3324 118.332C0.14599 150.519 0.14599 202.703 32.3324 234.89ZM11.1402 256.082C55.0308 299.973 126.191 299.973 170.082 256.082C213.973 212.191 213.973 141.031 170.082 97.1402C126.191 53.2496 55.0308 53.2496 11.1402 97.1402C-32.7504 141.031 -32.7504 212.191 11.1402 256.082Z" fill="url(#paint0_linear_11_903)"/>
<path opacity="0.5" fill-rule="evenodd" clip-rule="evenodd" d="M-31.8898 170.668C0.296623 202.854 52.4811 202.854 84.6676 170.668C116.854 138.481 116.854 86.2966 84.6676 54.1102C52.4811 21.9238 0.296623 21.9238 -31.8898 54.1102C-64.0762 86.2966 -64.0762 138.481 -31.8898 170.668ZM-53.0821 191.86C-9.19147 235.75 61.9692 235.75 105.86 191.86C149.75 147.969 149.75 76.8085 105.86 32.9179C61.9692 -10.9726 -9.19147 -10.9726 -53.0821 32.9179C-96.9726 76.8085 -96.9726 147.969 -53.0821 191.86Z" fill="url(#paint1_linear_11_903)"/>
<path opacity="0.5" fill-rule="evenodd" clip-rule="evenodd" d="M9.83666 193.163C36.1174 198.699 64.5327 191.236 84.8843 170.884C105.236 150.533 112.699 122.117 107.163 95.8367C80.8827 90.3011 52.4673 97.7642 32.1158 118.116C11.7642 138.467 4.30107 166.883 9.83666 193.163ZM-14.0665 217.067C-29.8076 176.897 -21.4493 129.466 11.0084 97.0084C43.466 64.5507 90.8971 56.1924 131.067 71.9335C146.808 112.103 138.449 159.534 105.992 191.992C73.534 224.449 26.1029 232.808 -14.0665 217.067Z" fill="url(#paint2_linear_11_903)"/>
</g>
<defs>
<linearGradient id="paint0_linear_11_903" x1="90.6111" y1="64.2222" x2="90.6111" y2="289" gradientUnits="userSpaceOnUse">
<stop stop-color="#E95062"/>
<stop offset="1" stop-color="#34384C" stop-opacity="0"/>
</linearGradient>
<linearGradient id="paint1_linear_11_903" x1="26.3889" y1="0" x2="26.3889" y2="224.778" gradientUnits="userSpaceOnUse">
<stop stop-color="#E95062"/>
<stop offset="1" stop-color="#34384C" stop-opacity="0"/>
</linearGradient>
<linearGradient id="paint2_linear_11_903" x1="58.5" y1="64.2222" x2="58.5" y2="224.778" gradientUnits="userSpaceOnUse">
<stop stop-color="#E95062"/>
<stop offset="1" stop-color="#34384C" stop-opacity="0"/>
</linearGradient>
</defs>
</svg>
