<svg width="392" height="264" viewBox="0 0 392 264" fill="none" xmlns="http://www.w3.org/2000/svg">
<g style="mix-blend-mode:overlay" opacity="0.3">
<path fill-rule="evenodd" clip-rule="evenodd" d="M159.989 318.441C203.744 362.196 274.685 362.196 318.441 318.441C362.196 274.685 362.196 203.744 318.441 159.989C274.685 116.233 203.744 116.233 159.989 159.989C116.233 203.744 116.233 274.685 159.989 318.441ZM131.179 347.25C190.845 406.917 287.584 406.917 347.25 347.25C406.917 287.584 406.917 190.845 347.25 131.179C287.584 71.5126 190.845 71.5126 131.179 131.179C71.5127 190.845 71.5127 287.584 131.179 347.25Z" fill="url(#paint0_linear_21_191)"/>
<path fill-rule="evenodd" clip-rule="evenodd" d="M73.5593 232.012C117.315 275.767 188.256 275.767 232.012 232.012C275.767 188.256 275.767 117.315 232.012 73.5593C188.256 29.8039 117.315 29.8039 73.5593 73.5593C29.8039 117.315 29.8039 188.256 73.5593 232.012ZM44.7498 260.821C104.416 320.487 201.155 320.487 260.821 260.821C320.487 201.155 320.487 104.416 260.821 44.7498C201.155 -14.9166 104.416 -14.9166 44.7498 44.7498C-14.9166 104.416 -14.9166 201.155 44.7498 260.821Z" fill="url(#paint1_linear_21_191)"/>
<path fill-rule="evenodd" clip-rule="evenodd" d="M129.58 262.419C165.45 269.974 204.234 259.788 232.012 232.01C259.79 204.232 269.977 165.448 262.421 129.577C226.551 122.022 187.766 132.208 159.989 159.986C132.211 187.764 122.024 226.548 129.58 262.419ZM96.9543 295.044C75.4693 240.217 86.8776 175.478 131.179 131.177C175.481 86.8751 240.219 75.4668 295.047 96.9518C316.531 151.779 305.123 216.518 260.822 260.819C216.52 305.121 151.782 316.529 96.9543 295.044Z" fill="url(#paint2_linear_21_191)"/>
</g>
<defs>
<linearGradient id="paint0_linear_21_191" x1="86.4293" y1="86.4292" x2="445.924" y2="176.303" gradientUnits="userSpaceOnUse">
<stop stop-color="#DDDBE9"/>
<stop offset="1" stop-color="#C2C0D1"/>
</linearGradient>
<linearGradient id="paint1_linear_21_191" x1="0" y1="0" x2="359.495" y2="89.8738" gradientUnits="userSpaceOnUse">
<stop stop-color="#F1F0F6"/>
<stop offset="1" stop-color="#DDDBE9"/>
</linearGradient>
<linearGradient id="paint2_linear_21_191" x1="86.4293" y1="86.4268" x2="344.244" y2="150.88" gradientUnits="userSpaceOnUse">
<stop stop-color="#C8C6D6"/>
<stop offset="1" stop-color="#F1F0F6"/>
</linearGradient>
</defs>
</svg>
