<svg width="32" height="32" viewBox="0 0 32 32" fill="none" xmlns="http://www.w3.org/2000/svg">
<path fill-rule="evenodd" clip-rule="evenodd" d="M30 16C30 23.732 23.732 30 16 30C8.26801 30 2 23.732 2 16C2 8.26801 8.26801 2 16 2C23.732 2 30 8.26801 30 16ZM32 16C32 24.8366 24.8366 32 16 32C7.16344 32 0 24.8366 0 16C0 7.16344 7.16344 0 16 0C24.8366 0 32 7.16344 32 16ZM14.5058 7.79965C14.8311 7.77777 15.1632 7.76287 15.5012 7.75546L15.5287 9.00518C15.6846 9.00176 15.8417 9 16 9C16.1583 9 16.3154 9.00176 16.4713 9.00518L16.4988 7.75546C16.8368 7.76287 17.1689 7.77777 17.4942 7.79964L17.4104 9.04683C17.7281 9.06821 18.0385 9.09663 18.3402 9.13154L18.4839 7.8898C18.8206 7.92876 19.1479 7.97535 19.4644 8.02895L19.2558 9.26143C19.4271 9.29043 19.5945 9.32158 19.7577 9.35469C19.8907 9.38164 20.0209 9.40986 20.1481 9.43936L20.4303 8.22161C20.7608 8.29819 21.0758 8.38289 21.3731 8.47476L21.0041 9.66904C21.2953 9.75903 21.5604 9.85444 21.7982 9.95303L22.2768 8.79824C22.5914 8.92864 22.8695 9.0655 23.1105 9.20568L22.4819 10.2861C22.5746 10.34 22.6546 10.3914 22.7232 10.4393C22.7532 10.4602 22.781 10.4805 22.8066 10.5C22.7624 10.5336 22.7121 10.5693 22.6552 10.6068C22.6202 10.6299 22.5826 10.6536 22.5425 10.6779L22.5159 10.6938L22.4819 10.7139L23.1105 11.7943C22.8695 11.9345 22.5914 12.0714 22.2768 12.2018L21.7982 11.047C21.5604 11.1456 21.2953 11.241 21.0041 11.331L21.3731 12.5252C21.0758 12.6171 20.7608 12.7018 20.4303 12.7784L20.1481 11.5606C19.8648 11.6263 19.5669 11.6859 19.2558 11.7386L19.4644 12.9711C19.1479 13.0246 18.8206 13.0712 18.4839 13.1102L18.3402 11.8685C18.0385 11.9034 17.7281 11.9318 17.4104 11.9532L17.4942 13.2004C17.1689 13.2222 16.8368 13.2371 16.4988 13.2445L16.4713 11.9948C16.3154 11.9982 16.1583 12 16 12C15.8417 12 15.6846 11.9982 15.5287 11.9948L15.5012 13.2445C15.1632 13.2371 14.8311 13.2222 14.5058 13.2004L14.5896 11.9532C14.5042 11.9474 14.4193 11.9412 14.335 11.9344C14.2467 11.9273 14.1591 11.9198 14.0721 11.9116C13.933 11.8986 13.7955 11.8842 13.6598 11.8685L13.5161 13.1102C13.1794 13.0712 12.8521 13.0246 12.5356 12.9711L12.7442 11.7386C12.4332 11.6859 12.1352 11.6263 11.8519 11.5606L11.5697 12.7784C11.2392 12.7018 10.9242 12.6171 10.6269 12.5252L10.9959 11.331C10.7047 11.241 10.4396 11.1456 10.2018 11.047L9.72328 12.2018C9.40861 12.0714 9.13051 11.9345 8.88953 11.7943L9.51812 10.7139C9.38501 10.6364 9.27798 10.5643 9.19336 10.5C9.23994 10.4646 9.29336 10.4268 9.35415 10.3871C9.40376 10.3547 9.4583 10.3209 9.51812 10.2861L8.88951 9.20568C9.13049 9.06549 9.4086 8.92863 9.72328 8.79823L10.2018 9.95303C10.4396 9.85444 10.7047 9.75903 10.9959 9.66904L10.6269 8.47476C10.9242 8.38288 11.2392 8.29819 11.5697 8.22161L11.8519 9.43936C12.1352 9.37373 12.4332 9.31411 12.7442 9.26143L12.5356 8.02895C12.8521 7.97535 13.1794 7.92876 13.5161 7.88981L13.6598 9.13154C13.9615 9.09663 14.2719 9.06821 14.5896 9.04683L14.5058 7.79965ZM23.2 10.3534L23.8055 9.70872C24.004 9.89507 24.1211 10.0628 24.1848 10.2094L23.2 10.5V10.3534ZM23.2 10.5L24.1848 10.7906C24.1211 10.9372 24.004 11.1049 23.8055 11.2913L23.2 10.6466V10.5ZM8.8 10.6466L8.19445 11.2913C7.99596 11.1049 7.87889 10.9372 7.81518 10.7906L8.8 10.5V10.6292V10.6466ZM8.8 10.3708V10.5L7.81518 10.2094C7.87889 10.0628 7.99596 9.89507 8.19445 9.70873L8.8 10.3534V10.3708ZM9.3642 7.32612C11.0995 6.65127 13.4459 6.25 16 6.25C18.5541 6.25 20.9005 6.65127 22.6358 7.32612C23.5011 7.66262 24.2525 8.0818 24.8004 8.58554C25.3489 9.08987 25.75 9.73597 25.75 10.5C25.75 10.6728 25.7295 10.8395 25.6914 11H25.75V14C25.75 14.1728 25.7295 14.3395 25.6914 14.5H25.75V17.5C25.75 17.6728 25.7295 17.8395 25.6914 18H25.75V21C25.75 21.764 25.3489 22.4101 24.8004 22.9145C24.2525 23.4182 23.5011 23.8374 22.6358 24.1739C20.9005 24.8487 18.5541 25.25 16 25.25C13.4459 25.25 11.0995 24.8487 9.3642 24.1739C8.49892 23.8374 7.74752 23.4182 7.19964 22.9145C6.65112 22.4101 6.25 21.764 6.25 21V18H6.30861C6.27052 17.8395 6.25 17.6728 6.25 17.5V14.5H6.30861C6.27052 14.3395 6.25 14.1728 6.25 14V11H6.30861C6.27052 10.8395 6.25 10.6728 6.25 10.5C6.25 9.73597 6.65112 9.08987 7.19964 8.58554C7.74752 8.0818 8.49892 7.66262 9.3642 7.32612ZM7.75 19.8483V21C7.75 21.2025 7.85256 21.4771 8.21489 21.8103C8.57786 22.144 9.14448 22.479 9.90787 22.7759C11.4299 23.3678 13.5835 23.75 16 23.75C18.4165 23.75 20.5701 23.3678 22.0921 22.7759C22.8555 22.479 23.4221 22.144 23.7851 21.8103C24.1474 21.4771 24.25 21.2025 24.25 21V19.8483C23.7876 20.1641 23.2394 20.4391 22.6358 20.6739C20.9005 21.3487 18.5541 21.75 16 21.75C13.4459 21.75 11.0995 21.3487 9.3642 20.6739C8.76057 20.4391 8.21236 20.1641 7.75 19.8483ZM22.6358 17.1739C23.2394 16.9391 23.7876 16.6641 24.25 16.3483V17.5C24.25 17.7025 24.1474 17.9771 23.7851 18.3103C23.4221 18.644 22.8555 18.979 22.0921 19.2759C20.5701 19.8678 18.4165 20.25 16 20.25C13.5835 20.25 11.4299 19.8678 9.90787 19.2759C9.14448 18.979 8.57786 18.644 8.21489 18.3103C7.85256 17.9771 7.75 17.7025 7.75 17.5V16.3483C8.21236 16.6641 8.76057 16.9391 9.3642 17.1739C11.0995 17.8487 13.4459 18.25 16 18.25C18.5541 18.25 20.9005 17.8487 22.6358 17.1739ZM7.75 12.8483V14C7.75 14.2025 7.85256 14.4771 8.21489 14.8103C8.57786 15.144 9.14448 15.479 9.90787 15.7759C11.4299 16.3678 13.5835 16.75 16 16.75C18.4165 16.75 20.5701 16.3678 22.0921 15.7759C22.8555 15.479 23.4221 15.144 23.7851 14.8103C24.1474 14.4771 24.25 14.2025 24.25 14V12.8483C23.7876 13.1641 23.2394 13.4391 22.6358 13.6739C20.9005 14.3487 18.5541 14.75 16 14.75C13.4459 14.75 11.0995 14.3487 9.3642 13.6739C8.76057 13.4391 8.21236 13.1641 7.75 12.8483Z" fill="url(#paint0_linear_2432_22370)"/>
<defs>
<linearGradient id="paint0_linear_2432_22370" x1="0" y1="0" x2="37.6471" y2="9.41176" gradientUnits="userSpaceOnUse">
<stop stop-color="#5084E9"/>
<stop offset="1" stop-color="#6F50E9"/>
</linearGradient>
</defs>
</svg>
