<svg width="32" height="32" viewBox="0 0 32 32" fill="none" xmlns="http://www.w3.org/2000/svg">
<path fill-rule="evenodd" clip-rule="evenodd" d="M30 16C30 23.732 23.732 30 16 30C8.26801 30 2 23.732 2 16C2 8.26801 8.26801 2 16 2C23.732 2 30 8.26801 30 16ZM32 16C32 24.8366 24.8366 32 16 32C7.16344 32 0 24.8366 0 16C0 7.16344 7.16344 0 16 0C24.8366 0 32 7.16344 32 16ZM22.1725 6.25H9.82747L4.03516 13.4075L16 28.1922L27.9648 13.4075L22.1725 6.25ZM6.57176 12.6575L9.90862 8.53416L11.2909 12.6575H6.57176ZM14.3524 23.7718L11.7588 14.1575H6.57176L14.3524 23.7718ZM25.4282 14.1575L17.6476 23.7718L20.2411 14.1575H25.4282ZM13.3124 14.1575H18.6875L16 24.1203L13.3124 14.1575ZM25.4282 12.6575H20.7091L22.0913 8.53416L25.4282 12.6575ZM17.2933 7.75H20.7722L19.4871 11.5836L17.2933 7.75ZM16 8.51004L18.3733 12.6575H13.6266L16 8.51004ZM14.7067 7.75L12.5129 11.5836L11.2278 7.75H14.7067Z" fill="url(#paint0_linear_2432_22377)"/>
<defs>
<linearGradient id="paint0_linear_2432_22377" x1="0" y1="0" x2="37.6471" y2="9.41176" gradientUnits="userSpaceOnUse">
<stop stop-color="#5084E9"/>
<stop offset="1" stop-color="#6F50E9"/>
</linearGradient>
</defs>
</svg>
