<svg width="32" height="32" viewBox="0 0 32 32" fill="none" xmlns="http://www.w3.org/2000/svg">
<path fill-rule="evenodd" clip-rule="evenodd" d="M30 16C30 23.732 23.732 30 16 30C12.1854 30 8.72711 28.4744 6.20203 26H8V19H2.32218C2.11118 18.0335 2 17.0297 2 16C2 8.26801 8.26801 2 16 2C23.732 2 30 8.26801 30 16ZM32 16C32 24.8366 24.8366 32 16 32C7.16344 32 0 24.8366 0 16C0 7.16344 7.16344 0 16 0C24.8366 0 32 7.16344 32 16ZM9 20H13.4868C13.7191 20 13.9442 20.0809 14.1233 20.2288L15.9921 21.7712C16.1712 21.9191 16.3963 22 16.6286 22H19.6199C20.4764 22 20.9365 23.0067 20.376 23.6544C20.1861 23.8739 19.9101 24 19.6199 24H15.5641C15.38 24 15.2308 24.1492 15.2308 24.3333C15.2308 24.5174 15.38 24.6667 15.5641 24.6667H20.4759C20.6674 24.6667 20.8549 24.6117 21.0161 24.5082L24.4471 22.3056C24.7394 22.1179 25.1121 22.1092 25.4129 22.283C25.9956 22.6197 26.0375 23.4451 25.492 23.8391L19.9929 27.8107C19.8225 27.9338 19.6176 28 19.4074 28H16.0591C15.0611 28 14.0789 27.7511 13.2014 27.2758L9 25V20ZM14.5058 7.79965C14.8311 7.77777 15.1632 7.76287 15.5012 7.75546L15.5287 9.00518C15.6846 9.00176 15.8417 9 16 9C16.1583 9 16.3154 9.00176 16.4713 9.00518L16.4988 7.75546C16.8368 7.76287 17.1689 7.77777 17.4942 7.79964L17.4104 9.04683C17.7281 9.06821 18.0385 9.09663 18.3402 9.13154L18.4839 7.8898C18.8206 7.92876 19.1479 7.97535 19.4644 8.02895L19.2558 9.26143C19.4271 9.29043 19.5945 9.32158 19.7577 9.35469C19.8907 9.38164 20.0209 9.40986 20.1481 9.43936L20.4303 8.22161C20.7608 8.29819 21.0758 8.38289 21.3731 8.47476L21.0041 9.66904C21.2953 9.75903 21.5604 9.85444 21.7982 9.95303L22.2768 8.79824C22.5914 8.92864 22.8695 9.0655 23.1105 9.20568L22.4819 10.2861C22.5746 10.34 22.6546 10.3914 22.7232 10.4393C22.7532 10.4602 22.781 10.4805 22.8066 10.5C22.7624 10.5336 22.7121 10.5693 22.6552 10.6068C22.6202 10.6299 22.5826 10.6536 22.5425 10.6779L22.5159 10.6938L22.4819 10.7139L23.1105 11.7943C22.8695 11.9345 22.5914 12.0714 22.2768 12.2018L21.7982 11.047C21.5604 11.1456 21.2953 11.241 21.0041 11.331L21.3731 12.5252C21.0758 12.6171 20.7608 12.7018 20.4303 12.7784L20.1481 11.5606C19.8648 11.6263 19.5669 11.6859 19.2558 11.7386L19.4644 12.9711C19.1479 13.0246 18.8206 13.0712 18.4839 13.1102L18.3402 11.8685C18.0385 11.9034 17.7281 11.9318 17.4104 11.9532L17.4942 13.2004C17.1689 13.2222 16.8368 13.2371 16.4988 13.2445L16.4713 11.9948C16.3154 11.9982 16.1583 12 16 12C15.8417 12 15.6846 11.9982 15.5287 11.9948L15.5012 13.2445C15.1632 13.2371 14.8311 13.2222 14.5058 13.2004L14.5896 11.9532C14.5042 11.9474 14.4193 11.9412 14.335 11.9344C14.2467 11.9273 14.1591 11.9198 14.0721 11.9116C13.933 11.8986 13.7955 11.8842 13.6598 11.8685L13.5161 13.1102C13.1794 13.0712 12.8521 13.0246 12.5356 12.9711L12.7442 11.7386C12.4332 11.6859 12.1352 11.6263 11.8519 11.5606L11.5697 12.7784C11.2392 12.7018 10.9242 12.6171 10.6269 12.5252L10.9959 11.331C10.7047 11.241 10.4396 11.1456 10.2018 11.047L9.72328 12.2018C9.40861 12.0714 9.13051 11.9345 8.88953 11.7943L9.51812 10.7139C9.38501 10.6364 9.27798 10.5643 9.19336 10.5C9.23994 10.4646 9.29336 10.4268 9.35415 10.3871C9.40376 10.3547 9.4583 10.3209 9.51812 10.2861L8.88951 9.20568C9.13049 9.06549 9.4086 8.92863 9.72328 8.79823L10.2018 9.95303C10.4396 9.85444 10.7047 9.75903 10.9959 9.66904L10.6269 8.47476C10.9242 8.38288 11.2392 8.29819 11.5697 8.22161L11.8519 9.43936C12.1352 9.37373 12.4332 9.31411 12.7442 9.26143L12.5356 8.02895C12.8521 7.97535 13.1794 7.92876 13.5161 7.88981L13.6598 9.13154C13.9615 9.09663 14.2719 9.06821 14.5896 9.04683L14.5058 7.79965ZM23.2 10.3534L23.8055 9.70872C24.004 9.89507 24.1211 10.0628 24.1848 10.2094L23.2 10.5V10.3534ZM23.2 10.5L24.1848 10.7906C24.1211 10.9372 24.004 11.1049 23.8055 11.2913L23.2 10.6466V10.5ZM8.8 10.6466L8.19445 11.2913C7.99596 11.1049 7.87889 10.9372 7.81518 10.7906L8.8 10.5V10.6292V10.6466ZM8.8 10.3708V10.5L7.81518 10.2094C7.87889 10.0628 7.99596 9.89507 8.19445 9.70873L8.8 10.3534V10.3708ZM9.3642 7.32612C11.0995 6.65127 13.4459 6.25 16 6.25C18.5541 6.25 20.9005 6.65127 22.6358 7.32612C23.5011 7.66262 24.2525 8.0818 24.8004 8.58554C25.3489 9.08987 25.75 9.73597 25.75 10.5C25.75 10.6728 25.7295 10.8395 25.6914 11H25.75V14C25.75 14.764 25.3489 15.4101 24.8004 15.9145C24.2525 16.4182 23.5011 16.8374 22.6358 17.1739C20.9005 17.8487 18.5541 18.25 16 18.25C13.4459 18.25 11.0995 17.8487 9.3642 17.1739C8.49892 16.8374 7.74752 16.4182 7.19964 15.9145C6.65112 15.4101 6.25 14.764 6.25 14V11H6.30861C6.27052 10.8395 6.25 10.6728 6.25 10.5C6.25 9.73597 6.65112 9.08987 7.19964 8.58554C7.74752 8.0818 8.49892 7.66262 9.3642 7.32612ZM7.75 12.8483C8.21236 13.1641 8.76057 13.4391 9.3642 13.6739C11.0995 14.3487 13.4459 14.75 16 14.75C18.5541 14.75 20.9005 14.3487 22.6358 13.6739C23.2394 13.4391 23.7876 13.1641 24.25 12.8483V14C24.25 14.2025 24.1474 14.4771 23.7851 14.8103C23.4221 15.144 22.8555 15.479 22.0921 15.7759C20.5701 16.3678 18.4165 16.75 16 16.75C13.5835 16.75 11.4299 16.3678 9.90787 15.7759C9.14448 15.479 8.57786 15.144 8.21489 14.8103C7.85256 14.4771 7.75 14.2025 7.75 14V12.8483Z" fill="url(#paint0_linear_2432_22386)"/>
<defs>
<linearGradient id="paint0_linear_2432_22386" x1="0" y1="0" x2="37.6471" y2="9.41176" gradientUnits="userSpaceOnUse">
<stop stop-color="#5084E9"/>
<stop offset="1" stop-color="#6F50E9"/>
</linearGradient>
</defs>
</svg>
