<svg width="32" height="32" viewBox="0 0 32 32" fill="none" xmlns="http://www.w3.org/2000/svg">
<path fill-rule="evenodd" clip-rule="evenodd" d="M16 30C23.732 30 30 23.732 30 16C30 8.26801 23.732 2 16 2C8.26801 2 2 8.26801 2 16C2 17.0297 2.11118 18.0335 2.32218 19H8V26H6.20203C8.72711 28.4744 12.1854 30 16 30ZM16 32C24.8366 32 32 24.8366 32 16C32 7.16344 24.8366 0 16 0C7.16344 0 0 7.16344 0 16C0 24.8366 7.16344 32 16 32ZM13.4868 20H9V25L13.2014 27.2758C14.0789 27.7511 15.0611 28 16.0591 28H19.4074C19.6176 28 19.8225 27.9338 19.9929 27.8107L25.492 23.8391C26.0375 23.4451 25.9956 22.6197 25.4129 22.283C25.1121 22.1092 24.7394 22.1179 24.4471 22.3056L21.0161 24.5082C20.8549 24.6117 20.6674 24.6667 20.4759 24.6667H15.5641C15.38 24.6667 15.2308 24.5174 15.2308 24.3333C15.2308 24.1492 15.38 24 15.5641 24H19.6199C19.9101 24 20.1861 23.8739 20.376 23.6544C20.9365 23.0067 20.4764 22 19.6199 22H16.6286C16.3963 22 16.1712 21.9191 15.9921 21.7712L14.1233 20.2288C13.9442 20.0809 13.7191 20 13.4868 20ZM6.25 11.3462V11H6.30899C6.27047 10.8381 6.25 10.671 6.25 10.5C6.25 10.1947 6.31524 9.90206 6.43197 9.62848C6.59453 9.24749 7.03516 9.07043 7.41614 9.23299C7.79712 9.39554 7.97419 9.83617 7.81163 10.2172C7.76813 10.3191 7.75 10.4121 7.75 10.5C7.75 10.5879 7.76813 10.6809 7.81163 10.7828C7.91838 11.033 7.87867 11.3089 7.73093 11.5149C7.65437 11.8479 7.35618 12.0962 7 12.0962C6.58579 12.0962 6.25 11.7604 6.25 11.3462ZM25.75 11V11.3462C25.75 11.7604 25.4142 12.0962 25 12.0962C24.6438 12.0962 24.3456 11.8479 24.2691 11.5149C24.1213 11.3089 24.0816 11.033 24.1884 10.7828C24.2319 10.6809 24.25 10.5879 24.25 10.5C24.25 10.4121 24.2319 10.3191 24.1884 10.2172C24.0258 9.83617 24.2029 9.39554 24.5839 9.23298C24.9648 9.07043 25.4055 9.24749 25.568 9.62848C25.6848 9.90206 25.75 10.1947 25.75 10.5C25.75 10.671 25.7295 10.8381 25.691 11H25.75ZM25 12.9038C25.4142 12.9038 25.75 13.2396 25.75 13.6538V14C25.75 14.3053 25.6848 14.5979 25.568 14.8715C25.4055 15.2525 24.9648 15.4296 24.5839 15.267C24.2029 15.1045 24.0258 14.6638 24.1884 14.2828C24.2319 14.1809 24.25 14.0879 24.25 14V13.6538C24.25 13.2396 24.5858 12.9038 25 12.9038ZM7 12.9038C7.41421 12.9038 7.75 13.2396 7.75 13.6538V14C7.75 14.0879 7.76813 14.1809 7.81163 14.2828C7.97419 14.6638 7.79712 15.1045 7.41614 15.267C7.03516 15.4296 6.59453 15.2525 6.43197 14.8715C6.31524 14.5979 6.25 14.3053 6.25 14V13.6538C6.25 13.2396 6.58579 12.9038 7 12.9038ZM9.61519 16.4925C9.73993 16.0975 10.1613 15.8784 10.5562 16.0032C10.8952 16.1102 11.2583 16.2081 11.643 16.2952C12.0469 16.3867 12.3003 16.7883 12.2088 17.1923C12.1173 17.5963 11.7156 17.8496 11.3116 17.7581C10.8897 17.6626 10.4862 17.5541 10.1045 17.4335C9.70952 17.3088 9.49044 16.8875 9.61519 16.4925ZM22.3848 16.4925C22.5096 16.8875 22.2905 17.3088 21.8955 17.4335C21.5138 17.5541 21.1103 17.6626 20.6884 17.7581C20.2844 17.8496 19.8827 17.5963 19.7912 17.1923C19.6997 16.7883 19.9531 16.3867 20.357 16.2952C20.7417 16.2081 21.1048 16.1102 21.4438 16.0032C21.8387 15.8784 22.2601 16.0975 22.3848 16.4925ZM14.6555 17.4735C14.666 17.0594 15.0102 16.7322 15.4243 16.7427C15.6145 16.7475 15.8065 16.75 16 16.75C16.1935 16.75 16.3855 16.7475 16.5757 16.7427C16.9898 16.7322 17.334 17.0594 17.3445 17.4735C17.355 17.8875 17.0278 18.2317 16.6138 18.2422C16.4108 18.2474 16.2062 18.25 16 18.25C15.7938 18.25 15.5892 18.2474 15.3862 18.2422C14.9722 18.2317 14.645 17.8875 14.6555 17.4735ZM16 6.25C15.7938 6.25 15.5892 6.25261 15.3862 6.25776C14.9722 6.26827 14.645 6.61246 14.6555 7.02654C14.666 7.44062 15.0102 7.76778 15.4243 7.75728C15.6145 7.75245 15.8065 7.75 16 7.75C16.1935 7.75 16.3855 7.75245 16.5757 7.75728C16.9898 7.76778 17.334 7.44062 17.3445 7.02654C17.355 6.61246 17.0278 6.26827 16.6138 6.25776C16.4108 6.25261 16.2062 6.25 16 6.25ZM20.6884 6.74189C20.2844 6.65039 19.8827 6.90372 19.7912 7.3077C19.6997 7.71168 19.9531 8.11334 20.357 8.20484C20.7417 8.29195 21.1048 8.3898 21.4438 8.49684C21.8387 8.62158 22.2601 8.4025 22.3848 8.00752C22.5096 7.61254 22.2905 7.19122 21.8955 7.06647C21.5138 6.94594 21.1103 6.83744 20.6884 6.74189ZM11.643 8.20484C12.0469 8.11334 12.3003 7.71168 12.2088 7.3077C12.1173 6.90372 11.7156 6.65039 11.3116 6.74189C10.8897 6.83744 10.4862 6.94594 10.1045 7.06647C9.70952 7.19122 9.49044 7.61254 9.61519 8.00752C9.73993 8.4025 10.1613 8.62158 10.5562 8.49684C10.8952 8.3898 11.2583 8.29195 11.643 8.20484ZM10.5562 12.5032C10.1613 12.3784 9.73993 12.5975 9.61519 12.9925C9.49044 13.3875 9.70952 13.8088 10.1045 13.9335C10.4862 14.0541 10.8897 14.1626 11.3116 14.2581C11.7156 14.3496 12.1173 14.0963 12.2088 13.6923C12.3003 13.2883 12.0469 12.8867 11.643 12.7952C11.2583 12.7081 10.8952 12.6102 10.5562 12.5032ZM21.8955 13.9335C22.2905 13.8088 22.5096 13.3875 22.3848 12.9925C22.2601 12.5975 21.8387 12.3784 21.4438 12.5032C21.1048 12.6102 20.7417 12.7081 20.357 12.7952C19.9531 12.8867 19.6997 13.2883 19.7912 13.6923C19.8827 14.0963 20.2844 14.3496 20.6884 14.2581C21.1103 14.1626 21.5138 14.0541 21.8955 13.9335ZM15.4243 13.2427C15.0102 13.2322 14.666 13.5594 14.6555 13.9735C14.645 14.3875 14.9722 14.7317 15.3862 14.7422C15.5892 14.7474 15.7938 14.75 16 14.75C16.2062 14.75 16.4108 14.7474 16.6138 14.7422C17.0278 14.7317 17.355 14.3875 17.3445 13.9735C17.334 13.5594 16.9898 13.2322 16.5757 13.2427C16.3855 13.2475 16.1935 13.25 16 13.25C15.8065 13.25 15.6145 13.2475 15.4243 13.2427Z" fill="url(#paint0_linear_2432_22380)"/>
<defs>
<linearGradient id="paint0_linear_2432_22380" x1="0" y1="0" x2="37.6471" y2="9.41176" gradientUnits="userSpaceOnUse">
<stop stop-color="#5084E9"/>
<stop offset="1" stop-color="#6F50E9"/>
</linearGradient>
</defs>
</svg>
