<svg width="32" height="32" viewBox="0 0 32 32" fill="none" xmlns="http://www.w3.org/2000/svg">
<path d="M30 16C30 23.732 23.732 30 16 30C8.26801 30 2 23.732 2 16C2 8.26801 8.26801 2 16 2C23.732 2 30 8.26801 30 16Z" fill="#F4D2AA"/>
<path fill-rule="evenodd" clip-rule="evenodd" d="M16 3C8.8203 3 3 8.8203 3 16C3 23.1797 8.8203 29 16 29C23.1797 29 29 23.1797 29 16C29 8.8203 23.1797 3 16 3ZM1 16C1 7.71573 7.71573 1 16 1C24.2843 1 31 7.71573 31 16C31 24.2843 24.2843 31 16 31C7.71573 31 1 24.2843 1 16Z" fill="#E99A50"/>
<path d="M13.2137 7.99238C13.0982 6.37539 14.3789 5 16 5V5C17.6211 5 18.9018 6.37539 18.7863 7.99238L18.1425 17.0051C18.0622 18.1291 17.1269 19 16 19V19C14.8731 19 13.9378 18.1291 13.8575 17.0051L13.2137 7.99238Z" fill="#E99A50"/>
<circle cx="16" cy="23.5" r="2.5" fill="#E99A50"/>
</svg>
