<svg width="32" height="32" viewBox="0 0 32 32" fill="none" xmlns="http://www.w3.org/2000/svg">
<path d="M16 5.79134C13.9951 3.87382 11.3501 2.153 9.53451 3.45322C7.77374 4.71416 10.6586 6.04794 13.8869 7H5C3.89543 7 3 7.89543 3 9V13H29V9C29 7.89543 28.1046 7 27 7H18.1131C21.3414 6.04794 24.2263 4.71416 22.4655 3.45322C20.6499 2.153 18.0049 3.87382 16 5.79134Z" fill="#C2C0D1"/>
<path d="M4 15H15V28H7C5.34315 28 4 26.6569 4 25V15Z" fill="#C2C0D1"/>
<path d="M25 28H17V15H28V25C28 26.6569 26.6569 28 25 28Z" fill="#C2C0D1"/>
</svg>
