<svg width="32" height="32" viewBox="0 0 32 32" fill="none" xmlns="http://www.w3.org/2000/svg">
<path fill-rule="evenodd" clip-rule="evenodd" d="M3 8.78564C3 7.12879 4.34315 5.78564 6 5.78564H26C27.6569 5.78564 29 7.12879 29 8.78564V10.4286H20.6429C18.0787 10.4286 16 12.5072 16 15.0714V16.9286C16 19.4928 18.0787 21.5714 20.6429 21.5714H29V23.2142C29 24.8711 27.6569 26.2142 26 26.2142H6C4.34315 26.2142 3 24.8711 3 23.2142V8.78564ZM20.6429 12.2857H29V19.7143H20.6429C19.1043 19.7143 17.8571 18.4671 17.8571 16.9286V15.0714C17.8571 13.5329 19.1043 12.2857 20.6429 12.2857ZM21.5714 17.8571C22.5971 17.8571 23.4286 17.0256 23.4286 15.9999C23.4286 14.9743 22.5971 14.1428 21.5714 14.1428C20.5458 14.1428 19.7143 14.9743 19.7143 15.9999C19.7143 17.0256 20.5458 17.8571 21.5714 17.8571Z" fill="#C2C0D1"/>
</svg>
