<svg xmlns="http://www.w3.org/2000/svg" width="24" height="24" viewBox="0 0 24 24" fill="none">
    <path d="M14 4C11.7833 4 9.89583 4.77917 8.3375 6.3375C6.77917 7.89583 6 9.78333 6 12C6 14.2167 6.77917 16.1042 8.3375 17.6625C9.89583 19.2208 11.7833 20 14 20H14.525C14.6917 20 14.85 19.9833 15 19.95C14.05 18.85 13.3125 17.6208 12.7875 16.2625C12.2625 14.9042 12 13.4833 12 12C12 10.5167 12.2625 9.09583 12.7875 7.7375C13.3125 6.37917 14.05 5.15 15 4.05C14.85 4.01667 14.6917 4 14.525 4H14ZM14 22C12.6333 22 11.3417 21.7375 10.125 21.2125C8.90833 20.6875 7.84583 19.9708 6.9375 19.0625C6.02917 18.1542 5.3125 17.0917 4.7875 15.875C4.2625 14.6583 4 13.3667 4 12C4 10.6167 4.2625 9.32083 4.7875 8.1125C5.3125 6.90417 6.02917 5.84583 6.9375 4.9375C7.84583 4.02917 8.90833 3.3125 10.125 2.7875C11.3417 2.2625 12.6333 2 14 2C14.7333 2 15.4417 2.07917 16.125 2.2375C16.8083 2.39583 17.4667 2.61667 18.1 2.9C18.3333 3.01667 18.4583 3.17083 18.475 3.3625C18.4917 3.55417 18.3833 3.73333 18.15 3.9C16.8833 4.81667 15.875 5.975 15.125 7.375C14.375 8.775 14 10.3167 14 12C14 13.6833 14.375 15.225 15.125 16.625C15.875 18.025 16.8833 19.1833 18.15 20.1C18.3833 20.2667 18.4917 20.4458 18.475 20.6375C18.4583 20.8292 18.3333 20.9833 18.1 21.1C17.4667 21.3833 16.8083 21.6042 16.125 21.7625C15.4417 21.9208 14.7333 22 14 22Z" fill="white"/>
</svg>