<svg width="18" height="18" viewBox="0 0 18 18" fill="none" xmlns="http://www.w3.org/2000/svg">
<g opacity="0.5">
<path fill-rule="evenodd" clip-rule="evenodd" d="M15.3321 4.08211C15.7226 3.69158 15.7226 3.05842 15.3321 2.66789C14.9416 2.27737 14.3084 2.27737 13.9179 2.66789L2.66789 13.9179C2.27737 14.3084 2.27737 14.9416 2.66789 15.3321C3.05842 15.7226 3.69158 15.7226 4.08211 15.3321L15.3321 4.08211ZM9 4C9.66215 4 10.3076 4.08873 10.929 4.24255L9.16703 6.00457C9.11174 6.00154 9.05605 6 9 6C7.34315 6 6 7.34315 6 9C6 9.05605 6.00154 9.11174 6.00457 9.16703L3.23393 11.9377C1.25743 10.5603 0 9 0 9C0 9 4.02944 4 9 4ZM9 12C8.94397 12 8.8883 11.9985 8.83302 11.9954L7.07099 13.7575C7.69243 13.9113 8.33786 14 9 14C13.9706 14 18 9 18 9C18 9 16.7426 7.43971 14.7661 6.06235L11.9954 8.83302C11.9985 8.8883 12 8.94397 12 9C12 10.6569 10.6569 12 9 12Z" fill="#F2F2F2"/>
</g>
</svg>
