<svg width="32" height="32" viewBox="0 0 32 32" fill="none" xmlns="http://www.w3.org/2000/svg">
<path d="M27.6623 3.00296C27.6623 3.00296 25.4558 2.88264 24.1696 4.17681C22.8819 5.47244 23.0029 7.69248 23.0029 7.69248C23.0029 7.69248 25.2108 7.81574 26.4971 6.5201C27.7848 5.22593 27.6623 3.00296 27.6623 3.00296ZM3.17104 3.00589C3.17104 3.00589 2.98875 6.33815 4.91958 8.28087C5.85 9.21848 7.09833 9.65428 8.14542 9.86117C8.44437 10.6755 9 12.6153 9 15.9138V18.2615H3.16667C2.8575 18.2615 2.56 18.3848 2.34125 18.6049C2.1225 18.825 2 19.1243 2 19.4354V26.4785C2 28.4094 3.58083 30 5.5 30H26.5C28.4192 30 30 28.4094 30 26.4785V19.4354C30 19.1243 29.8775 18.825 29.6587 18.6049C29.44 18.3848 29.1425 18.2615 28.8333 18.2615H26.5C26.3454 18.2586 26.1923 18.2879 26.0479 18.3466C25.905 18.4038 25.7738 18.4904 25.6644 18.599C25.555 18.709 25.466 18.8382 25.4077 18.982C25.3479 19.1258 25.3173 19.2798 25.3173 19.4354C25.3173 19.5909 25.3479 19.745 25.4077 19.8888C25.466 20.0326 25.555 20.1617 25.6644 20.2717C25.7738 20.3803 25.905 20.4669 26.0479 20.5241C26.1923 20.5828 26.3454 20.6107 26.5 20.6092H27.6667V25.1608C26.3104 24.8512 25.3333 24.1308 25.3333 24.1308C25.3333 24.1308 23.7671 25.3046 21.8333 25.3046C20.6142 25.3046 19.5437 24.838 18.9167 24.4932C18.2896 24.838 17.2192 25.3046 16 25.3046C14.7808 25.3046 13.7104 24.838 13.0833 24.4932C12.4562 24.838 11.3858 25.3046 10.1667 25.3046C8.23292 25.3046 6.66667 24.1308 6.66667 24.1308C6.66667 24.1308 5.68958 24.8512 4.33333 25.1608V20.6092H9V21.7831C8.99708 21.9386 9.02625 22.0927 9.08458 22.2365C9.14146 22.3817 9.2275 22.5123 9.33542 22.6238C9.44479 22.7339 9.57312 22.8219 9.71604 22.8821C9.85896 22.9422 10.0121 22.9731 10.1667 22.9731C10.3212 22.9731 10.4744 22.9422 10.6173 22.8821C10.7602 22.8219 10.8885 22.7339 10.9979 22.6238C11.1058 22.5123 11.1919 22.3817 11.2487 22.2365C11.3071 22.0927 11.3348 21.9386 11.3333 21.7831V19.632C11.3537 19.5058 11.3537 19.3767 11.3333 19.249V15.9138C11.3333 15.8801 11.3319 15.8522 11.3304 15.8199C12.064 15.6996 12.9842 15.4223 13.6637 14.737C14.9515 13.4429 14.829 11.2199 14.829 11.2199C14.829 11.2199 12.6225 11.0996 11.3362 12.3937C11.2575 12.473 11.1992 12.564 11.1306 12.6491C10.7675 9.84503 10.0442 8.34543 10.0442 8.34543C10.0398 8.33957 10.0354 8.3337 10.0325 8.32783C9.85896 7.21414 9.44917 5.80552 8.41375 4.76373C6.48292 2.82101 3.17104 3.00589 3.17104 3.00589ZM16.0044 5.35359C16.0044 5.35359 15.8512 8.12974 17.4612 9.74818C18.135 10.4275 19.0042 10.787 19.796 10.9851C20.0921 11.776 20.6667 13.7407 20.6667 17.0877V18.2615H14.8333C14.6787 18.2586 14.5256 18.2879 14.3813 18.3466C14.2383 18.4038 14.1071 18.4904 13.9977 18.599C13.8869 18.709 13.8008 18.8382 13.741 18.982C13.6813 19.1258 13.6506 19.2798 13.6506 19.4354C13.6506 19.5909 13.6813 19.745 13.741 19.8888C13.8008 20.0326 13.8869 20.1617 13.9977 20.2717C14.1071 20.3803 14.2383 20.4669 14.3813 20.5241C14.5256 20.5828 14.6787 20.6107 14.8333 20.6092H20.6667V21.7831C20.6637 21.9386 20.6929 22.0927 20.7513 22.2365C20.8081 22.3817 20.8942 22.5123 21.0021 22.6238C21.1115 22.7339 21.2398 22.8219 21.3827 22.8821C21.5256 22.9422 21.6787 22.9731 21.8333 22.9731C21.9879 22.9731 22.141 22.9422 22.284 22.8821C22.4269 22.8219 22.5552 22.7339 22.6646 22.6238C22.7725 22.5123 22.8585 22.3817 22.9154 22.2365C22.9737 22.0927 23.0029 21.9386 23 21.7831V19.632C23.0204 19.5058 23.0204 19.3767 23 19.249V17.0877C23 16.6475 22.981 16.2469 22.9606 15.8419C24.0967 15.7377 25.8394 15.4003 27.0804 14.1501C29.0112 12.2074 28.829 8.87513 28.829 8.87513C28.829 8.87513 25.5171 8.69025 23.5862 10.633C23.1152 11.1069 22.7769 11.663 22.5231 12.2323C22.1556 10.4701 21.7108 9.51928 21.7108 9.51928C21.6933 9.48553 21.6758 9.45325 21.6554 9.42097C21.476 8.56406 21.1187 7.56923 20.3721 6.81796C18.7635 5.19952 16.0044 5.35359 16.0044 5.35359Z" fill="#C2C0D1"/>
</svg>
