<svg width="18" height="14" viewBox="0 0 18 14" fill="none" xmlns="http://www.w3.org/2000/svg">
<path fill-rule="evenodd" clip-rule="evenodd" d="M2 0C0.895447 0 0 0.895386 0 2V12C0 13.1046 0.895447 14 2 14H16C17.1046 14 18 13.1046 18 12V2C18 0.895386 17.1046 0 16 0H2ZM2 3.5C2 2.67163 2.67157 2 3.5 2H5.5C6.32843 2 7 2.67163 7 3.5V6.5C7 7.32837 6.32843 8 5.5 8H3.5C2.67157 8 2 7.32837 2 6.5V3.5ZM9 3C9 2.44775 9.44769 2 10 2H15C15.5523 2 16 2.44775 16 3C16 3.55225 15.5523 4 15 4H10C9.44769 4 9 3.55225 9 3ZM10 6C9.44769 6 9 6.44775 9 7C9 7.55225 9.44769 8 10 8H15C15.5523 8 16 7.55225 16 7C16 6.44775 15.5523 6 15 6H10ZM2 11C2 10.4478 2.44769 10 3 10H15C15.5523 10 16 10.4478 16 11C16 11.5522 15.5523 12 15 12H3C2.44769 12 2 11.5522 2 11Z" fill="url(#paint1_linear_153_707)"/>
<defs>
<linearGradient id="paint0_linear_153_707" x1="9" y1="0" x2="9" y2="18" gradientUnits="userSpaceOnUse">
<stop stop-color="#CA9546"/>
<stop offset="1" stop-color="#D4CF40"/>
</linearGradient>
<linearGradient id="paint1_linear_153_707" x1="9" y1="0" x2="9" y2="18" gradientUnits="userSpaceOnUse">
<stop stop-color="#CA9546"/>
<stop offset="1" stop-color="#D4CF40"/>
</linearGradient>
<linearGradient id="paint2_linear_153_707" x1="9" y1="0" x2="9" y2="18" gradientUnits="userSpaceOnUse">
<stop stop-color="#CA9546"/>
<stop offset="1" stop-color="#D4CF40"/>
</linearGradient>
<linearGradient id="paint3_linear_153_707" x1="9" y1="0" x2="9" y2="18" gradientUnits="userSpaceOnUse">
<stop stop-color="#CA9546"/>
<stop offset="1" stop-color="#D4CF40"/>
</linearGradient>
</defs>
</svg>
