<svg width="32" height="32" viewBox="0 0 32 32" fill="none" xmlns="http://www.w3.org/2000/svg">
<path fill-rule="evenodd" clip-rule="evenodd" d="M16.9633 2.03262C17.5507 2.07254 17.9157 2.66085 18.0341 3.23753C18.2068 4.07877 18.8088 4.80864 19.6808 5.10444C19.9387 5.19194 20.1958 5.28926 20.4516 5.39664C20.7073 5.50402 20.9568 5.61936 21.1999 5.74222C22.0217 6.15751 22.9643 6.0761 23.6857 5.6103C24.18 5.29118 24.855 5.13976 25.2949 5.53052C25.7427 5.92838 26.1648 6.35453 26.5584 6.80617C26.945 7.24977 26.787 7.92342 26.463 8.41463C25.9899 9.13204 25.8996 10.0745 26.3078 10.9006C26.5506 11.3922 26.7584 11.9006 26.9293 12.4216C27.2164 13.297 27.9409 13.9066 28.781 14.0874C29.3565 14.2112 29.9414 14.5818 29.9758 15.1695C29.9918 15.4443 30 15.7212 30 16C30 16.3238 29.989 16.6451 29.9674 16.9634C29.9274 17.5508 29.3392 17.9158 28.7625 18.0342C27.9213 18.2069 27.1915 18.8089 26.8957 19.6809C26.8082 19.9388 26.7109 20.1959 26.6035 20.4517C26.4961 20.7074 26.3807 20.9569 26.2579 21.2001C25.8426 22.0218 25.924 22.9643 26.3898 23.6858C26.7089 24.18 26.8602 24.855 26.4695 25.2948C26.0716 25.7427 25.6455 26.1648 25.1938 26.5584C24.7502 26.945 24.0766 26.787 23.5854 26.4631C22.868 25.99 21.9256 25.8997 21.0995 26.3079C20.6079 26.5507 20.0995 26.7585 19.5785 26.9294C18.7031 27.2165 18.0936 27.941 17.9128 28.781C17.7889 29.3566 17.4183 29.9414 16.8306 29.9758C16.5558 29.9918 16.2789 30 16 30C15.6762 30 15.355 29.989 15.0367 29.9674C14.4493 29.9275 14.0843 29.3392 13.9659 28.7626C13.7932 27.9214 13.1912 27.1916 12.3192 26.8958C12.0613 26.8083 11.8042 26.711 11.5484 26.6036C11.2927 26.4962 11.0432 26.3809 10.8001 26.258C9.97829 25.8427 9.03579 25.9241 8.31434 26.3899C7.82009 26.709 7.1451 26.8603 6.7053 26.4696C6.25747 26.0717 5.83534 25.6456 5.44172 25.1939C5.05514 24.7504 5.21309 24.0767 5.53701 23.5855C6.01008 22.8681 6.10037 21.9257 5.69225 21.0996C5.44936 20.6081 5.24161 20.0996 5.07072 19.5786C4.78356 18.7032 4.05911 18.0937 3.21901 17.9129C2.64347 17.789 2.05863 17.4184 2.02424 16.8307C2.00815 16.5559 2 16.2789 2 16C2 15.6762 2.01099 15.3551 2.03262 15.0368C2.07253 14.4495 2.66082 14.0845 3.23748 13.966C4.0787 13.7933 4.80854 13.1913 5.10433 12.3194C5.19183 12.0614 5.28915 11.8043 5.39653 11.5486C5.50391 11.2928 5.61925 11.0433 5.74211 10.8002C6.1574 9.97837 6.07599 9.03583 5.61019 8.31437C5.29107 7.82011 5.13966 7.1451 5.53041 6.70528C5.92826 6.25746 6.3544 5.83535 6.80604 5.44174C7.24964 5.05514 7.9233 5.21312 8.41452 5.53707C9.13193 6.01019 10.0744 6.10049 10.9005 5.69236C11.3921 5.44947 11.9005 5.24172 12.4215 5.07083C13.297 4.78367 13.9065 4.05918 14.0873 3.21906C14.2111 2.64349 14.5817 2.05862 15.1694 2.02423C15.4442 2.00815 15.7212 2 16 2C16.3238 2 16.645 2.01099 16.9633 2.03262ZM16 20C18.2091 20 20 18.2091 20 16C20 13.7909 18.2091 12 16 12C13.7909 12 12 13.7909 12 16C12 18.2091 13.7909 20 16 20Z" fill="url(#paint0_linear_2432_22407)"/>
<defs>
<linearGradient id="paint0_linear_2432_22407" x1="2" y1="2" x2="34.9412" y2="10.2353" gradientUnits="userSpaceOnUse">
<stop stop-color="#E9D050"/>
<stop offset="1" stop-color="#E99A50"/>
</linearGradient>
</defs>
</svg>
