<svg width="24" height="24" viewBox="0 0 24 24" fill="none" xmlns="http://www.w3.org/2000/svg">
<path d="M9.33 11.5H11.5C12.6935 11.5 13.8381 11.9741 14.682 12.818C15.5259 13.6619 16 14.8065 16 16H8.999L9 17H17V16C16.9968 14.936 16.6894 13.895 16.114 13H19C19.9453 12.9997 20.8712 13.2674 21.6705 13.772C22.4698 14.2767 23.1097 14.9975 23.516 15.851C21.151 18.972 17.322 21 13 21C10.239 21 7.9 20.41 6 19.375V10.071C7.21661 10.2453 8.36547 10.7383 9.33 11.5ZM5 19C5 19.2652 4.89464 19.5196 4.70711 19.7071C4.51957 19.8946 4.26522 20 4 20H2C1.73478 20 1.48043 19.8946 1.29289 19.7071C1.10536 19.5196 1 19.2652 1 19V10C1 9.73478 1.10536 9.48043 1.29289 9.29289C1.48043 9.10536 1.73478 9 2 9H4C4.26522 9 4.51957 9.10536 4.70711 9.29289C4.89464 9.48043 5 9.73478 5 10V19ZM18 5C18.7956 5 19.5587 5.31607 20.1213 5.87868C20.6839 6.44129 21 7.20435 21 8C21 8.79565 20.6839 9.55871 20.1213 10.1213C19.5587 10.6839 18.7956 11 18 11C17.2044 11 16.4413 10.6839 15.8787 10.1213C15.3161 9.55871 15 8.79565 15 8C15 7.20435 15.3161 6.44129 15.8787 5.87868C16.4413 5.31607 17.2044 5 18 5ZM11 2C11.7956 2 12.5587 2.31607 13.1213 2.87868C13.6839 3.44129 14 4.20435 14 5C14 5.79565 13.6839 6.55871 13.1213 7.12132C12.5587 7.68393 11.7956 8 11 8C10.2044 8 9.44129 7.68393 8.87868 7.12132C8.31607 6.55871 8 5.79565 8 5C8 4.20435 8.31607 3.44129 8.87868 2.87868C9.44129 2.31607 10.2044 2 11 2Z" fill="url(#paint0_linear_2433_22500)"/>
<defs>
<linearGradient id="paint0_linear_2433_22500" x1="3" y1="12.6923" x2="22" y2="12.6923" gradientUnits="userSpaceOnUse">
<stop stop-color="#5084E9"/>
<stop offset="1" stop-color="#6F50E9"/>
</linearGradient>
</defs>
</svg>
