<svg width="32" height="32" viewBox="0 0 32 32" fill="none" xmlns="http://www.w3.org/2000/svg">
<path fill-rule="evenodd" clip-rule="evenodd" d="M6.16092 7.54709C6.23677 7.37252 6.37614 7.17287 6.61244 6.95104L7.33333 7.71852V7.73927V7.89302L6.16092 7.54709ZM7.33333 7.89302V8.04677V8.06752L6.61244 8.835C6.37614 8.61317 6.23677 8.41352 6.16092 8.23895L7.33333 7.89302ZM8.43248 9.91894C8.05787 9.76371 7.7268 9.60078 7.43992 9.43389L8.18823 8.14762C8.02977 8.05543 7.90236 7.96952 7.80162 7.89302C7.85707 7.85088 7.92067 7.80588 7.99304 7.75863C8.05209 7.72003 8.11702 7.67986 8.18823 7.63842L7.43989 6.35216C7.72678 6.18527 8.05786 6.02234 8.43248 5.8671L9.00215 7.24186C9.2853 7.1245 9.60082 7.01092 9.94756 6.90379L9.50821 5.48202C9.86217 5.37264 10.2371 5.27182 10.6307 5.18065L10.9665 6.63035C11.3038 6.55222 11.6585 6.48125 12.0289 6.41853L11.7804 4.95129C12.1572 4.88749 12.5469 4.83202 12.9478 4.78565L13.1188 6.2639C13.478 6.22234 13.8475 6.18851 14.2258 6.16305L14.1259 4.67831C14.5132 4.65227 14.9086 4.63453 15.311 4.62571L15.3437 6.11347C15.5293 6.1094 15.7163 6.10731 15.9048 6.10731C16.0932 6.10731 16.2803 6.1094 16.4658 6.11347L16.4985 4.62571C16.9009 4.63453 17.2963 4.65226 17.6836 4.67831L17.5838 6.16305C17.9621 6.18851 18.3315 6.22234 18.6908 6.2639L18.8617 4.78564C19.2626 4.83202 19.6523 4.88749 20.0291 4.95129L19.7807 6.41853C19.9847 6.45306 20.184 6.49014 20.3782 6.52955C20.5366 6.56164 20.6915 6.59524 20.843 6.63035L21.1789 5.18065C21.5724 5.27182 21.9474 5.37265 22.3013 5.48202L21.862 6.90379C22.2087 7.01092 22.5242 7.1245 22.8074 7.24186L23.3771 5.86712C23.7517 6.02235 24.0828 6.18528 24.3696 6.35216L23.6213 7.63842C23.7317 7.70259 23.8269 7.76374 23.9086 7.82077C23.9443 7.84564 23.9773 7.86977 24.0079 7.89302C23.9552 7.93301 23.8954 7.97556 23.8276 8.02021C23.786 8.04764 23.7412 8.07589 23.6934 8.10478L23.6618 8.12379L23.6213 8.14762L24.3696 9.43388C24.0828 9.60076 23.7517 9.76369 23.3771 9.91892L22.8074 8.54418C22.5242 8.66154 22.2087 8.77512 21.862 8.88225L22.3013 10.304C21.9474 10.4134 21.5724 10.5142 21.1789 10.6054L20.843 9.15569C20.5058 9.23382 20.1511 9.30479 19.7807 9.36751L20.0291 10.8347C19.6523 10.8986 19.2626 10.954 18.8617 11.0004L18.6908 9.52213C18.3315 9.5637 17.9621 9.59753 17.5838 9.62299L17.6836 11.1077C17.2963 11.1338 16.9009 11.1515 16.4985 11.1603L16.4658 9.67257C16.2803 9.67664 16.0932 9.67873 15.9048 9.67873C15.7163 9.67873 15.5293 9.67664 15.3437 9.67257L15.311 11.1603C14.9086 11.1515 14.5132 11.1338 14.1259 11.1077L14.2258 9.62299C14.124 9.61613 14.023 9.60869 13.9226 9.60067C13.8175 9.59224 13.7132 9.58323 13.6096 9.57352C13.444 9.558 13.2804 9.54085 13.1188 9.52213L12.9478 11.0004C12.5469 10.954 12.1572 10.8986 11.7804 10.8347L12.0289 9.36751C11.6585 9.30479 11.3038 9.23382 10.9665 9.15569L10.6307 10.6054C10.2371 10.5142 9.86217 10.4134 9.50821 10.304L9.94756 8.88225C9.60082 8.77512 9.2853 8.66154 9.00215 8.54418L8.43248 9.91894ZM24.4762 7.71846L25.1971 6.95102C25.4334 7.17286 25.5727 7.37251 25.6486 7.54708L24.4762 7.89302V7.71846ZM24.4762 7.89302L25.6486 8.23896C25.5727 8.41353 25.4334 8.61318 25.1971 8.83502L24.4762 8.06758V7.89302ZM8.005 4.11459C10.0709 3.3112 12.8642 2.8335 15.9048 2.8335C18.9454 2.8335 21.7386 3.3112 23.8045 4.11459C24.8346 4.51519 25.7291 5.01421 26.3814 5.6139C27.0344 6.21429 27.5119 6.98346 27.5119 7.89302C27.5119 8.09872 27.4875 8.29724 27.4421 8.48826H27.5119V12.0597C27.5119 12.9692 27.0344 13.7384 26.3814 14.3388C25.7291 14.9385 24.8346 15.4375 23.8045 15.8381C21.7386 16.6415 18.9454 17.1192 15.9048 17.1192C12.8642 17.1192 10.0709 16.6415 8.005 15.8381C6.97491 15.4375 6.08038 14.9385 5.42814 14.3388C4.77514 13.7384 4.29762 12.9692 4.29762 12.0597V8.48826H4.3674C4.32204 8.29724 4.29762 8.09872 4.29762 7.89302C4.29762 6.98346 4.77514 6.21429 5.42814 5.6139C6.08038 5.01421 6.97491 4.51519 8.005 4.11459ZM6.08333 10.6886V12.0597C6.08333 12.3007 6.20543 12.6277 6.63677 13.0243C7.06888 13.4216 7.74343 13.8204 8.65223 14.1738C10.4642 14.8785 13.028 15.3335 15.9048 15.3335C18.7815 15.3335 21.3454 14.8785 23.1573 14.1738C24.0661 13.8204 24.7406 13.4216 25.1728 13.0243C25.6041 12.6277 25.7262 12.3007 25.7262 12.0597V10.6886C25.1758 11.0646 24.5231 11.392 23.8045 11.6714C21.7386 12.4748 18.9454 12.9525 15.9048 12.9525C12.8642 12.9525 10.0709 12.4748 8.005 11.6714C7.28639 11.392 6.63376 11.0646 6.08333 10.6886ZM5 18.0121H10.6464C10.9905 18.0121 11.3239 18.1324 11.5893 18.3525L14.3575 20.6478C14.623 20.8679 14.9564 20.9883 15.3005 20.9883H19.7315C21.0004 20.9883 21.682 22.4863 20.8516 23.4501C20.5703 23.7768 20.1615 23.9644 19.7315 23.9644H13.7236C13.4509 23.9644 13.2298 24.1865 13.2298 24.4605C13.2298 24.7344 13.4509 24.9565 13.7236 24.9565H20.9996C21.2833 24.9565 21.5611 24.8747 21.7998 24.7207L26.8822 21.443C27.3153 21.1637 27.8673 21.1507 28.3129 21.4094C29.176 21.9104 29.2382 23.1387 28.43 23.7251L20.2841 29.6351C20.0317 29.8183 19.7282 29.9168 19.4168 29.9168H14.4568C12.9785 29.9168 11.5235 29.5464 10.2236 28.8391L4.52204 25.7366C4.20028 25.5615 4 25.2245 4 24.8582V19.0121C4 18.4598 4.44772 18.0121 5 18.0121Z" fill="#C2C0D1"/>
</svg>
