<svg width="21" height="19" fill="currentColor" viewBox="0 0 21 19" xmlns="http://www.w3.org/2000/svg"><path d="M14.3994 17.8231C14.8163 18.2256 15.4776 18.2256 15.8944 17.8231L19.8476 14.0138C19.9544 13.9168 20.0408 13.7994 20.1014 13.6685C20.1621 13.5376 20.1959 13.3958 20.2007 13.2516C20.2056 13.1074 20.1815 12.9637 20.1298 12.829C20.0781 12.6943 19.9999 12.5713 19.8998 12.4674C19.7997 12.3634 19.6798 12.2807 19.5471 12.2239C19.4145 12.1672 19.2718 12.1377 19.1275 12.1371C18.9832 12.1365 18.8403 12.1649 18.7072 12.2206C18.574 12.2763 18.4535 12.3581 18.3526 12.4613L16.2251 14.5111V1.95312C16.2251 1.66719 16.1115 1.39296 15.9093 1.19078C15.7071 0.988588 15.4329 0.875 15.1469 0.875C14.861 0.875 14.5868 0.988588 14.3846 1.19078C14.1824 1.39296 14.0688 1.66719 14.0688 1.95312V14.5111L11.9413 12.4613C11.8404 12.3581 11.7198 12.2763 11.5867 12.2206C11.4536 12.1649 11.3107 12.1365 11.1664 12.1371C11.0221 12.1377 10.8794 12.1672 10.7467 12.2239C10.6141 12.2807 10.4941 12.3634 10.3941 12.4674C10.294 12.5713 10.2158 12.6943 10.1641 12.829C10.1124 12.9637 10.0883 13.1074 10.0931 13.2516C10.098 13.3958 10.1318 13.5376 10.1925 13.6685C10.2531 13.7994 10.3394 13.9168 10.4463 14.0138L14.3994 17.8231ZM6.56506 1.19125C6.36291 0.989353 6.08889 0.875949 5.80318 0.875949C5.51748 0.875949 5.24346 0.989353 5.04131 1.19125L1.08819 5.14437C0.897745 5.34875 0.794068 5.61907 0.798996 5.89838C0.803924 6.17768 0.917072 6.44418 1.1146 6.64171C1.31213 6.83924 1.57863 6.95239 1.85793 6.95731C2.13724 6.96224 2.40756 6.85857 2.61194 6.66813L4.72506 4.555V17.0469C4.72506 17.3328 4.83865 17.607 5.04084 17.8092C5.24302 18.0114 5.51725 18.125 5.80318 18.125C6.08912 18.125 6.36335 18.0114 6.56553 17.8092C6.76772 17.607 6.88131 17.3328 6.88131 17.0469V4.555L8.99443 6.66813C9.19881 6.85857 9.46913 6.96224 9.74844 6.95731C10.0277 6.95239 10.2942 6.83924 10.4918 6.64171C10.6893 6.44418 10.8024 6.17768 10.8074 5.89838C10.8123 5.61907 10.7086 5.34875 10.5182 5.14437L6.56506 1.19125Z" fill="#FFFFFF"></path></svg>