<svg width="24" height="24" viewBox="0 0 24 24" fill="none" xmlns="http://www.w3.org/2000/svg">
<path d="M17 9C15.985 9 14.32 9.223 13 9.781V7C13 4.755 8.879 4 7 4C5.121 4 1 4.755 1 7V16C1 18.245 5.121 19 7 19C8.021 19 9.701 18.774 11.024 18.21C11.277 20.29 15.182 21 17 21C18.879 21 23 20.245 23 18V12C23 9.755 18.879 9 17 9ZM17 11C18.785 11 20.438 11.595 20.914 12C20.437 12.406 18.784 13 17 13C15.216 13 13.562 12.406 13.086 12C13.563 11.595 15.215 11 17 11ZM21 14.902C20.709 15.303 18.937 16 17 16C15.063 16 13.291 15.303 13 14.902V14.22C14.32 14.777 15.985 15 17 15C18.015 15 19.68 14.777 21 14.221V14.902ZM3 12.221C4.32 12.777 5.985 13 7 13C8.015 13 9.68 12.777 11 12.221V12.903C10.709 13.303 8.937 14 7 14C5.063 14 3.291 13.303 3 12.902V12.221ZM3 9.221C4.32 9.777 5.985 10 7 10C8.015 10 9.68 9.777 11 9.221V9.903C10.709 10.303 8.937 11 7 11C5.063 11 3.291 10.303 3 9.902V9.221ZM7 6C8.785 6 10.438 6.595 10.914 7C10.438 7.406 8.784 8 7 8C5.216 8 3.563 7.406 3.086 7C3.563 6.595 5.215 6 7 6ZM3 15.913V15.221C4.32 15.777 5.985 16 7 16C8.015 16 9.68 15.777 11 15.221V15.913C10.682 16.315 8.916 17 7 17C5.084 17 3.318 16.315 3 15.913ZM17 19C15.084 19 13.318 18.315 13 17.913V17.221C14.32 17.777 15.985 18 17 18C18.015 18 19.68 17.777 21 17.221V17.913C20.682 18.315 18.916 19 17 19Z" fill="white"/>
</svg>