<svg width="24" height="24" viewBox="0 0 24 24" fill="none" xmlns="http://www.w3.org/2000/svg">
<path d="M2.13203 13.63C1.95265 12.5507 1.95265 11.4493 2.13203 10.37C3.23403 10.396 4.22403 9.868 4.60903 8.939C4.99403 8.009 4.66703 6.935 3.86903 6.176C4.50544 5.28528 5.28459 4.50579 6.17503 3.869C6.93503 4.667 8.00903 4.994 8.93903 4.609C9.86903 4.224 10.396 3.233 10.369 2.132C11.4489 1.9524 12.5511 1.9524 13.631 2.132C13.604 3.234 14.132 4.224 15.061 4.609C15.991 4.994 17.065 4.667 17.824 3.869C18.7147 4.50541 19.4942 5.28456 20.131 6.175C19.333 6.935 19.006 8.009 19.391 8.939C19.776 9.869 20.767 10.396 21.868 10.369C22.0476 11.4489 22.0476 12.5511 21.868 13.631C20.766 13.604 19.776 14.132 19.391 15.061C19.006 15.991 19.333 17.065 20.131 17.824C19.4946 18.7147 18.7155 19.4942 17.825 20.131C17.065 19.333 15.991 19.006 15.061 19.391C14.131 19.776 13.604 20.767 13.631 21.868C12.5511 22.0476 11.4489 22.0476 10.369 21.868C10.396 20.766 9.86803 19.776 8.93903 19.391C8.00903 19.006 6.93503 19.333 6.17603 20.131C5.28532 19.4946 4.50583 18.7154 3.86903 17.825C4.66703 17.065 4.99403 15.991 4.60903 15.061C4.22403 14.131 3.23303 13.603 2.13203 13.63ZM12 15C12.7957 15 13.5587 14.6839 14.1213 14.1213C14.684 13.5587 15 12.7956 15 12C15 11.2043 14.684 10.4413 14.1213 9.87867C13.5587 9.31607 12.7957 9 12 9C11.2044 9 10.4413 9.31607 9.87871 9.87867C9.3161 10.4413 9.00003 11.2043 9.00003 12C9.00003 12.7956 9.3161 13.5587 9.87871 14.1213C10.4413 14.6839 11.2044 15 12 15Z" fill="url(#paint0_linear_2433_22500)"/>
<defs>
<linearGradient id="paint0_linear_2433_22500" x1="3" y1="12.6923" x2="22" y2="12.6923" gradientUnits="userSpaceOnUse">
<stop stop-color="#5084E9"/>
<stop offset="1" stop-color="#6F50E9"/>
</linearGradient>
</defs>
</svg>