<svg width="32" height="32" viewBox="0 0 32 32" fill="none" xmlns="http://www.w3.org/2000/svg">
<path fill-rule="evenodd" clip-rule="evenodd" d="M25.0417 5.62589C22.8738 3.45803 19.359 3.45804 17.1912 5.6259L20.1352 8.56999L15.3226 13.3827L12.4333 10.4934C13.0424 8.78182 12.662 6.79685 11.2919 5.42674C9.92173 4.05662 7.93672 3.67614 6.22509 4.28532L9.81984 7.88006L6.87589 10.824L3.28119 7.2293C2.67207 8.9409 3.05256 10.9259 4.42266 12.2959C5.79277 13.6661 7.77777 14.0465 9.48939 13.4374L12.3786 16.3266L4.62155 24.0837L7.56549 27.0276L15.3226 19.2706L23.1504 27.0984L26.0943 24.1545L18.2665 16.3266L23.0792 11.5139L26.023 14.4577L29.9482 10.5325L25.0417 5.62589Z" fill="url(#paint0_linear_2433_22547)"/>
<defs>
<linearGradient id="paint0_linear_2433_22547" x1="3" y1="4" x2="34.0444" y2="13.0546" gradientUnits="userSpaceOnUse">
<stop stop-color="#E9D050"/>
<stop offset="1" stop-color="#E99A50"/>
</linearGradient>
</defs>
</svg>
