<svg width="24" height="24" viewBox="0 0 24 24" fill="none" xmlns="http://www.w3.org/2000/svg">
<path d="M5 22C4.45 22 3.97917 21.8042 3.5875 21.4125C3.19583 21.0208 3 20.55 3 20V15.45L5.75 12.325L7.175 13.75L5.175 16H18.825L16.875 13.8L18.3 12.375L21 15.45V20C21 20.55 20.8042 21.0208 20.4125 21.4125C20.0208 21.8042 19.55 22 19 22H5ZM10.6 14.4L7.125 10.875C6.74167 10.4917 6.55 10.0167 6.55 9.44999C6.55 8.88332 6.74167 8.40832 7.125 8.02499L12.025 3.12499C12.4083 2.74165 12.8833 2.54999 13.45 2.54999C14.0167 2.54999 14.4917 2.74165 14.875 3.12499L18.4 6.59999C18.7833 6.98332 18.9792 7.45415 18.9875 8.01249C18.9958 8.57082 18.8083 9.04165 18.425 9.42499L13.425 14.425C13.0417 14.8083 12.5708 14.9958 12.0125 14.9875C11.4542 14.9792 10.9833 14.7833 10.6 14.4ZM17 7.99999L13.45 4.49999L8.5 9.44999L12.05 12.95L17 7.99999Z" fill="url(#paint0_linear_2433_22500)"/>
<defs>
<linearGradient id="paint0_linear_2433_22500" x1="3" y1="12.6923" x2="22" y2="12.6923" gradientUnits="userSpaceOnUse">
<stop stop-color="#5084E9"/>
<stop offset="1" stop-color="#6F50E9"/>
</linearGradient>
</defs>
</svg>

