<svg width="24" height="24" viewBox="0 0 24 24" fill="none" xmlns="http://www.w3.org/2000/svg">
<path d="M5 22C4.45 22 3.97917 21.8042 3.5875 21.4125C3.19583 21.0208 3 20.55 3 20V15.45L5.75 12.325L7.175 13.75L5.175 16H18.825L16.875 13.8L18.3 12.375L21 15.45V20C21 20.55 20.8042 21.0208 20.4125 21.4125C20.0208 21.8042 19.55 22 19 22H5ZM5 20H19V18H5V20ZM10.625 14.375L7.1 10.85C6.71667 10.4667 6.52917 9.99583 6.5375 9.4375C6.54583 8.87916 6.74167 8.40833 7.125 8.025L12.025 3.125C12.4083 2.74166 12.8833 2.54166 13.45 2.525C14.0167 2.50833 14.4917 2.69166 14.875 3.075L18.4 6.6C18.7833 6.98333 18.9833 7.45 19 8C19.0167 8.55 18.8333 9.01666 18.45 9.4L13.45 14.4C13.0667 14.7833 12.5958 14.9708 12.0375 14.9625C11.4792 14.9542 11.0083 14.7583 10.625 14.375ZM17 8.025L13.475 4.5L8.525 9.45L12.05 12.975L17 8.025Z" fill="white"/>
</svg>